<svg width="72" height="28" viewBox="0 0 72 28" fill="none" xmlns="http://www.w3.org/2000/svg">
<g id="Frame 1533209277">
<path id="o" d="M13.6036 27.8701C11.3091 27.8701 9.24397 27.3538 7.40833 26.3213C5.57269 25.2888 4.10035 23.8738 2.99132 22.0764C1.92053 20.2407 1.38513 18.1756 1.38513 15.8811C1.38513 14.0455 1.72931 12.3054 2.41768 10.661C3.10605 9.01656 4.06211 7.56335 5.28587 6.30134C6.50963 5.03934 7.94372 4.04504 9.58815 3.31843C11.2326 2.59182 12.9917 2.22852 14.8656 2.22852C17.2367 2.22852 19.3782 2.78303 21.2904 3.89207C23.2025 5.0011 24.7131 6.47343 25.8221 8.30908C26.9694 10.1065 27.543 12.076 27.543 14.2175C27.543 16.6651 27.0076 18.9405 25.9368 21.0438C24.9043 23.1089 23.3555 24.7725 21.2904 26.0345C19.2635 27.2582 16.7013 27.8701 13.6036 27.8701ZM14.7509 25.3461C15.554 25.3461 16.2424 25.1931 16.816 24.8872C17.4279 24.543 17.925 24.0459 18.3074 23.3958C18.7664 22.6309 19.0723 21.5984 19.2253 20.2981C19.4165 18.9596 19.5121 17.3917 19.5121 15.5943C19.5121 13.5292 19.2826 11.6935 18.8237 10.0874C18.3648 8.44293 17.7147 7.14268 16.8734 6.18662C16.0703 5.23055 15.1142 4.75252 14.0052 4.75252C13.3933 4.75252 12.8388 4.86725 12.3416 5.0967C11.8445 5.28792 11.4047 5.57474 11.0222 5.95716C10.3721 6.72201 9.91321 7.81192 9.64552 9.2269C9.41606 10.6419 9.30133 12.3819 9.30133 14.447C9.30133 16.2826 9.53079 18.0418 9.9897 19.7245C10.4869 21.3689 11.137 22.7265 11.9401 23.7973C12.7814 24.8298 13.7183 25.3461 14.7509 25.3461Z" fill="black"/>
<path id="v" d="M36.6739 9.7807C36.8173 10.0675 36.9607 10.2109 37.2476 10.928C37.7103 12.3582 37.8881 12.2186 37.9722 12.3869C38.8557 10.7884 38.4981 10.9069 39.2553 9.35047C40.4752 6.82647 41.5938 5.19734 42.2669 4.18773C43.4868 2.3368 44.9917 1.46295 46.9994 0.459087C47.8599 0.0288579 48.1945 0.149315 48.6572 0.149315C49.0779 0.149315 49.4144 0.317582 49.6668 0.654116C49.9613 0.99065 50.1506 1.41132 50.2347 1.91612C50.2768 2.08439 50.2978 2.35782 50.2978 2.73642C50.2978 3.66189 50.1295 4.58736 49.793 5.51283C49.162 7.15343 47.6055 11.1708 45.1236 17.565L42.4103 24.5691C42.0317 25.6207 41.4217 26.42 40.5804 26.9669C39.7811 27.5558 38.9188 27.8503 37.9933 27.8503C36.6051 27.8503 35.3851 27.2614 34.3335 26.0835C33.7025 25.3263 33.0504 24.0222 32.3774 22.1713C30.4423 16.2399 28.8227 11.1498 27.5187 6.90103C27.3925 6.5645 27.2032 6.14383 26.9508 5.63903C26.7404 5.09216 26.6353 4.65046 26.6353 4.31392C26.6353 3.72499 26.9508 3.19915 27.5818 2.73642C28.2128 2.27369 28.8858 2.04232 29.601 2.04232C30.4002 2.04232 31.3372 2.24119 32.515 3.04046C33.3564 3.67146 33.5189 3.75751 34.236 4.61796C34.953 5.62183 34.953 5.62183 35.5266 6.91251C36.1003 8.2032 36.2437 8.49002 36.6739 9.7807Z" fill="black"/>
<path id="e" d="M60.1136 27.8704C58.0485 27.8704 56.1938 27.335 54.5493 26.2642C52.9431 25.1552 51.662 23.6637 50.706 21.7898C49.7881 19.8777 49.3292 17.717 49.3292 15.3077C49.3292 12.8984 49.8837 10.7186 50.9928 8.76824C52.1018 6.77963 53.6124 5.21168 55.5245 4.06441C57.4366 2.87889 59.54 2.28613 61.8345 2.28613C63.479 2.28613 64.9513 2.64944 66.2515 3.37604C67.5518 4.06441 68.5843 5.00135 69.3492 6.18687C70.1523 7.37239 70.5538 8.71088 70.5538 10.2023C70.5538 11.6556 69.9611 12.3822 68.7755 12.3822H57.3028C56.7674 12.3822 56.3658 12.5351 56.0981 12.8411C55.8687 13.147 55.754 13.6633 55.754 14.3899C55.754 15.8431 56.079 17.1816 56.7292 18.4054C57.3793 19.5909 58.2589 20.5278 59.3679 21.2162C60.4769 21.9045 61.758 22.2487 63.2113 22.2487C64.3203 22.2487 65.3337 22.0384 66.2515 21.6177C67.2076 21.1971 68.1445 20.6234 69.0624 19.8968C69.2153 19.7821 69.3492 19.6865 69.4639 19.61C69.6169 19.4953 69.7507 19.4379 69.8655 19.4379C70.2479 19.4379 70.4391 19.6865 70.4391 20.1836C70.4391 20.6043 70.2861 21.1779 69.9802 21.9045C69.5978 22.8606 68.9476 23.8167 68.0298 24.7727C67.1502 25.6906 66.0412 26.4363 64.7027 27.0099C63.3642 27.5836 61.8345 27.8704 60.1136 27.8704ZM57.3028 9.97288H60.7446C61.8154 9.97288 62.5611 9.95376 62.9818 9.91551C63.4025 9.87727 63.7849 9.80079 64.1291 9.68606C64.3203 9.60958 64.4733 9.41836 64.588 9.11242C64.7027 8.80648 64.7601 8.4623 64.7601 8.07987C64.7601 7.04733 64.3968 6.20599 63.6702 5.55587C62.9818 4.90574 62.1213 4.58068 61.0888 4.58068C60.2857 4.58068 59.5209 4.81014 58.7942 5.26905C58.1059 5.68972 57.5322 6.26335 57.0733 6.98996C56.6527 7.67833 56.4615 8.40494 56.4997 9.16979C56.4997 9.70518 56.7674 9.97288 57.3028 9.97288Z" fill="black"/>
</g>
</svg>
